<?xml version="1.0" standalone="no"?>
<!DOCTYPE svg PUBLIC "-//W3C//DTD SVG 20010904//EN"
 "http://www.w3.org/TR/2001/REC-SVG-20010904/DTD/svg10.dtd">
<svg version="1.0" xmlns="http://www.w3.org/2000/svg"
 width="500.000000pt" height="500.000000pt" viewBox="0 0 500.000000 500.000000"
 preserveAspectRatio="xMidYMid meet">
<metadata>
Created by potrace 1.16, written by Peter Selinger 2001-2019
</metadata>
<g transform="translate(0.000000,500.000000) scale(0.100000,-0.100000)"
fill="#000000" stroke="none">
<path d="M0 2500 l0 -2500 2500 0 2500 0 0 2500 0 2500 -2500 0 -2500 0 0
-2500z m2558 1533 c25 -16 52 -69 52 -104 0 -35 -31 -89 -61 -104 -61 -32
-146 -10 -174 45 -34 66 -4 161 58 179 39 12 94 5 125 -16z m-743 -508 l25
-24 0 -994 c0 -841 -2 -996 -14 -1013 -13 -17 -29 -19 -141 -22 -137 -4 -165
0 -189 24 -14 14 -16 120 -16 1015 0 671 3 1007 10 1020 10 17 23 19 156 19
141 0 146 -1 169 -25z m1425 1 c114 -38 209 -94 284 -169 221 -223 242 -557
47 -767 -28 -30 -51 -58 -51 -61 0 -4 11 -14 25 -23 55 -36 123 -116 153 -178
78 -165 76 -322 -5 -495 -75 -161 -217 -279 -403 -336 -58 -17 -104 -20 -449
-24 -439 -6 -454 -4 -471 55 -8 26 -10 335 -8 1010 l3 974 24 20 c24 19 38 19
410 16 338 -4 393 -6 441 -22z"/>
<path d="M2728 3198 c-2 -7 -2 -128 1 -268 l6 -255 185 -3 c224 -4 255 0 314
39 63 42 116 147 116 228 0 104 -63 196 -165 243 -46 21 -67 23 -251 26 -161
3 -202 1 -206 -10z"/>
<path d="M2736 2341 c-9 -14 -20 -474 -12 -504 l6 -27 208 0 c243 0 285 8 355
70 60 53 107 148 107 216 0 58 -34 136 -76 176 -62 58 -98 65 -351 72 -138 4
-234 3 -237 -3z"/>
</g>
</svg>
